<?xml version="1.0" standalone="no"?><!DOCTYPE svg PUBLIC "-//W3C//DTD SVG 1.1//EN" "http://www.w3.org/Graphics/SVG/1.1/DTD/svg11.dtd"><svg class="icon" width="81px" height="81.00px" viewBox="0 0 1024 1024" version="1.1" xmlns="http://www.w3.org/2000/svg"><path d="M755.84 745.557333c-147.157333 17.92-306.346667-11.178667-356.010667-64.938666-10.112-10.922667-14.890667-22.016-14.890666-32.938667l-0.085334 121.984c0 10.922667 4.778667 22.016 14.890667 32.938667 49.706667 53.76 208.853333 82.858667 356.053333 64.938666 117.290667-14.293333 191.274667-54.101333 191.317334-96.896l0.085333-121.984c-0.085333 42.794667-74.069333 82.602667-191.36 96.896z" fill="#E59B1A" /><path d="M755.84 745.557333c-147.157333 17.92-306.346667-11.178667-356.053333-64.938666s29.056-111.658667 176.213333-129.578667c147.157333-17.92 306.602667 11.008 356.309333 64.768 49.706667 53.717333-29.312 111.829333-176.469333 129.749333z" fill="#EFBF48" /><path d="M755.84 580.053333c-147.157333 17.92-306.346667-11.178667-356.010667-64.938666-10.112-10.922667-14.890667-22.016-14.890666-32.938667l-0.128 121.984c0 10.922667 4.778667 22.016 14.890666 32.938667 49.706667 53.76 208.853333 82.858667 356.053334 64.938666 117.290667-14.293333 191.274667-54.101333 191.317333-96.896l0.085333-121.984c-0.042667 42.794667-74.026667 82.602667-191.317333 96.896z" fill="#E59B1A" /><path d="M755.84 580.053333c-147.157333 17.92-306.346667-11.178667-356.053333-64.938666s29.056-111.658667 176.213333-129.578667c147.157333-17.92 306.602667 11.008 356.309333 64.768 49.706667 53.717333-29.312 111.829333-176.469333 129.749333z" fill="#FFCF4D" /><path d="M801.237333 419.797333c-147.157333 17.92-306.346667-11.178667-356.010666-64.938666-10.112-10.922667-14.890667-22.016-14.890667-32.938667l-0.085333 121.984c0 10.922667 4.778667 22.016 14.890666 32.938667 49.706667 53.76 208.853333 82.858667 356.053334 64.938666 117.290667-14.293333 191.274667-54.101333 191.317333-96.896l0.085333-121.984c-0.042667 42.794667-74.026667 82.602667-191.36 96.896z" fill="#E59B1A" /><path d="M801.237333 419.797333c-147.157333 17.92-306.346667-11.178667-356.053333-64.938666s29.056-111.658667 176.213333-129.578667c147.157333-17.92 306.602667 11.008 356.309334 64.768 49.706667 53.717333-29.269333 111.829333-176.469334 129.749333z" fill="#FFCF4D" /><path d="M105.876462 813.295399a113.024 267.477333 27 1 0 242.864336-476.648098 113.024 267.477333 27 1 0-242.864336 476.648098Z" fill="#EFBF48" /><path d="M348.714667 336.597333l81.621333 41.6c55.594667 28.330667 46.336 158.037333-20.693333 289.621334-67.029333 131.584-166.528 215.338667-222.122667 187.008l-81.621333-41.6c55.594667 28.330667 155.093333-55.424 222.122666-187.008 67.029333-131.541333 76.330667-261.248 20.693334-289.621334z" fill="#D38C1A" /><path d="M665.685333 883.584c-120.704 0.042667-231.765333-28.245333-273.792-73.728-11.776-12.8-17.749333-26.282667-17.749333-40.192v-22.101333c-66.133333 94.293333-142.336 141.696-191.488 116.736l-81.621333-41.6c-61.824-31.488-54.741333-164.992 16.042666-304 70.826667-139.008 174.976-223.061333 236.458667-191.658667l66.090667 33.664v-38.869333a10.666667 10.666667 0 0 1 0.256-2.346667c2.389333-49.322667 80.170667-90.325333 200.192-104.917333 152.448-18.517333 313.002667 11.349333 365.397333 68.096 10.794667 11.648 16.597333 24.149333 17.28 37.205333 0.298667 0.896 0.426667 1.877333 0.426667 2.901333l-0.085334 121.984c-0.042667 22.144-15.701333 43.264-45.312 61.354667l-0.085333 98.901333a46.933333 46.933333 0 0 1-5.376 21.034667c3.413333 7.338667 5.077333 15.274667 5.077333 24.149333l0.298667 120.234667c-0.042667 50.474667-78.848 92.672-200.704 107.52-30.378667 3.882667-61.141333 5.632-91.306667 5.632z m-280.789333-182.357333a10.666667 10.666667 0 0 1 10.666667 10.666666l-0.042667 57.770667c0 8.362667 4.053333 17.024 12.074667 25.728 47.573333 51.456 203.093333 78.976 346.922666 61.568 119.424-14.549333 181.930667-54.4 181.973334-86.272l-0.298667-120.277333a34.304 34.304 0 0 0-4.906667-18.602667 10.666667 10.666667 0 0 1-0.128-10.965333c3.626667-6.229333 5.333333-11.264 5.333334-15.658667l0.085333-105.002667a10.666667 10.666667 0 0 1 5.418667-9.258666c25.728-14.592 39.893333-30.933333 39.936-46.037334l0.085333-117.333333a11.605333 11.605333 0 0 1-0.384-3.456c0.426667-9.002667-3.498667-18.048-11.648-26.88-47.488-51.370667-203.221333-78.890667-347.178667-61.397333-120.106667 14.634667-182.229333 54.698667-181.504 86.698666a11.093333 11.093333 0 0 1-0.213333 2.389334l-0.042667 53.248a10.666667 10.666667 0 0 1-15.530666 9.472L343.893333 346.112c-49.536-25.130667-144.597333 58.282667-207.829333 182.314667-63.189333 124.074667-74.794667 250.112-25.386667 275.328l81.621334 41.6c42.624 21.589333 121.344-38.186667 183.466666-139.050667a10.837333 10.837333 0 0 1 9.130667-5.077333z" fill="#C17D1A" /></svg>